<?xml version="1.0" encoding="UTF-8"?>
<svg id="Camada_1" xmlns="http://www.w3.org/2000/svg" version="1.1" viewBox="0 0 1920 1080">
  <!-- Generator: Adobe Illustrator 30.2.1, SVG Export Plug-In . SVG Version: 2.1.1 Build 1)  -->
  <defs>
    <style>
      .st0 {
        fill: #fff;
      }
    </style>
  </defs>
  <path class="st0" d="M421.7,389.67h131.93l-.43,1.29c-53.97,0-76.67,62.54-82.67,79.67l-62.96,174.76c4.28,10.71,25.7,43.26,59.97,43.26l.43.86-184.19-.43-.43-.86c38.98,0,31.27-36.41,27.84-45.41l-76.25-208.6c-5.57-15.42-18.85-43.69-60.39-43.69v-1.29l184.19.43.43,1.29c-38.98,0-35.55,24.42-26.99,47.55l73.67,201.75.43.86,60.83-170.48c10.28-29.13,18.85-79.67-46.26-79.67l.86-1.29Z"/>
  <g>
    <path class="st0" d="M1370.26,395.84c81.22,0,126.01,66.02,100.39,147.23-25.62,81.22-111.81,146.44-193.03,146.44-81.22,0-126.26-65.22-100.64-146.44,25.62-81.22,112.06-147.23,193.28-147.23ZM1459.61,470.26c6.56-20.8-1.91-39.61-26.71-39.61-69.22,0-223.42,117.23-244.63,184.44-6.56,20.8,1.91,39.61,26.72,39.61,69.21,0,223.42-117.23,244.62-184.44Z"/>
    <path class="st0" d="M1744.26,397.45h1.2s-8.3,50.41-40.31,50.41c-39.21,0-34.34-48.41-72.75-48.41-12.4,0-33.6,7.6-43.7,39.61-7.45,23.6,4.45,32.81,29.94,48.41l37.62,22.81c33.57,20.4,57.08,37.21,44.46,77.21-25.24,80.02-112.2,102.03-157.81,102.03s-104.19-9.6-104.19-9.6l33.93-101.22h1.2c-23.48,74.42,19.81,108.42,65.42,108.42,32.8,0,66.89-18,77.49-51.61,8.46-26.8-3.36-38.81-22.51-50.41l-37.34-22.41c-31.95-19.2-62.85-39.21-49.47-81.62,8.96-28.41,42.89-85.22,143.71-85.22,38.41,0,84.49,18.8,93.12,1.6Z"/>
  </g>
  <g>
    <path class="st0" d="M473.7,590.44c0-64.31,44.16-114.04,106.32-114.04,52.3,0,87.46,28.72,88.31,77.6h-132.04c1.29,58.73,33.44,95.6,74.6,95.6,23.15,0,45.44-10.29,64.31-35.15l3.43,2.14c-20.58,47.16-63.45,74.17-103.75,74.17-54.87,0-101.17-37.73-101.17-100.32ZM584.74,547.14c15.43,0,17.58-3.86,17.58-17.58,0-24.87-7.72-45.44-27.44-45.44-15,0-37.3,15.86-38.58,63.02h48.44Z"/>
    <path class="st0" d="M712.06,657.32v-92.6c0-25.72-7.72-42.87-22.29-49.73v-2.57c24.01-6,57.45-21.44,83.17-36.01h3.43l-3.43,52.73c5.14-8.57,9-15,14.58-22.72,16.29-22.72,30.44-30.01,45.87-30.01,19.72,0,33.44,12.86,33.44,32.58s-14.58,32.58-32.58,32.58-27.87-19.72-39.87-19.72c-6.43,0-13.29,3.86-20.58,14.58v120.9c0,19.72,7.29,23.15,34.3,24.87v4.29h-121.75v-4.29c19.72-1.71,25.72-5.14,25.72-24.87Z"/>
    <path class="st0" d="M976.58,653.89c-22.29,24.01-42.44,36.01-64.31,36.01-25.72,0-44.16-17.15-44.16-42.01,0-19.72,11.15-33.87,57.45-47.59l50.59-15.01v-33.44c0-12-3.86-37.73-32.15-37.73-9.86,0-35.58,3.86-35.58,13.29,0,6.86,11.58,19.72,11.58,33.44,0,12.86-10.29,19.72-22.72,19.72-10.72,0-21.44-5.57-21.44-19.29,0-15.43,13.29-32.15,32.15-48.87,27.44-24.44,50.59-34.3,72.88-34.3,32.15,0,57.02,21.01,57.02,56.59v110.61c0,10.29,5.14,16.72,13.72,16.72,9,0,15.86-6.43,19.29-10.72l3.86,2.57c-9,14.58-27.01,36.01-60.45,36.01-30.87,0-36.87-19.72-37.73-36.01ZM954.71,655.6c8.15,0,14.58-4.29,21.44-9.86v-53.59l-26.15,9.43c-11.15,4.29-20.58,11.57-20.58,27.44,0,17.15,10.29,26.58,25.29,26.58Z"/>
    <path class="st0" d="M1097.79,663.42c0-14.45,11.68-26.13,26.13-26.13s26.13,11.68,26.13,26.13-11.68,26.13-26.13,26.13-26.13-11.68-26.13-26.13Z"/>
  </g>
</svg>